<?xml version="1.0" encoding="UTF-8"?>
<svg id="Layer_2" data-name="Layer 2" xmlns="http://www.w3.org/2000/svg" viewBox="0 0 137.11 32.8">
  <defs>
    <style>
      .cls-1 {
        fill: #0f1638;
      }
    </style>
  </defs>
  <g id="Layer_1-2" data-name="Layer 1">
    <path class="cls-1" d="m2.06,31.44c-.08,0-.15-.04-.2-.11-.06-.11-.03-.25.08-.31.28-.16.54-.32.79-.46.11-.06.25-.02.31.09.06.11.02.25-.09.31-.25.14-.51.29-.78.45-.04.02-.08.03-.12.03Zm67.35-.63h-.28c-.13,0-.23-.1-.23-.23s.1-.23.23-.23h.28s.63,0,.63,0h0c.13,0,.23.1.23.23,0,.13-.1.23-.23.23h-.63Zm-2.1-.01h0c-.3,0-.61,0-.91-.01-.13,0-.23-.11-.22-.23,0-.12.1-.22.23-.22h0c.3,0,.61,0,.91.01.13,0,.23.1.22.23,0,.12-.1.22-.23.22Zm4.55,0c-.12,0-.23-.1-.23-.23,0-.13.1-.23.23-.23h.91c.13,0,.23.09.23.22,0,.13-.1.23-.22.23h-.91s0,0,0,0Zm2.73-.03c-.12,0-.23-.1-.23-.22,0-.13.1-.23.22-.23h.91c.12-.01.23.09.23.21,0,.13-.1.23-.22.23h-.91s0,.01,0,.01Zm-10.01-.03s0,0,0,0c-.3,0-.61-.02-.91-.03-.13,0-.22-.11-.22-.24,0-.13.12-.22.24-.22.3.01.6.02.91.03.13,0,.22.11.22.23,0,.12-.11.22-.23.22Zm12.74,0c-.12,0-.23-.1-.23-.22,0-.13.1-.23.22-.23h.91c.12-.02.23.08.23.21,0,.13-.1.23-.22.23h-.91s0,.01,0,.01Zm2.73-.05c-.12,0-.22-.1-.23-.22,0-.13.1-.23.22-.23.3,0,.61-.01.91-.02.12,0,.23.1.23.22,0,.13-.1.23-.22.23-.3,0-.61.02-.91.02,0,0,0,0,0,0Zm-18.19-.06s0,0-.01,0c-.3-.02-.61-.04-.91-.06-.13,0-.22-.12-.21-.24,0-.13.12-.22.24-.21.3.02.6.04.91.06.13,0,.22.12.21.24,0,.12-.11.21-.23.21Zm20.92-.02c-.12,0-.22-.1-.23-.22,0-.13.09-.23.22-.24.3-.01.61-.02.91-.04.12,0,.23.09.24.22,0,.13-.09.23-.22.24-.3.01-.61.03-.91.04,0,0,0,0,0,0Zm2.73-.13c-.12,0-.22-.09-.23-.21,0-.13.09-.23.21-.24.3-.02.6-.04.91-.06.12,0,.23.09.24.21,0,.13-.09.23-.21.24-.3.02-.61.04-.91.06,0,0,0,0-.01,0Zm-26.37-.06s-.01,0-.02,0c-.3-.03-.61-.06-.91-.09-.12-.01-.22-.12-.2-.25.01-.13.12-.22.25-.2.3.03.6.06.9.09.13.01.22.12.21.25-.01.12-.11.21-.23.21Zm29.09-.15c-.12,0-.22-.09-.23-.21-.01-.13.08-.24.21-.25.3-.03.6-.05.9-.08.13-.01.24.08.25.2.01.12-.08.24-.2.25-.3.03-.6.06-.91.09,0,0-.01,0-.02,0Zm-83.76-.12c-.09,0-.17-.05-.21-.13-.05-.11,0-.25.11-.3.29-.14.56-.26.84-.37.12-.05.25,0,.3.12.05.12,0,.25-.12.3-.27.11-.54.23-.82.36-.03.01-.06.02-.1.02Zm51.96-.02s-.02,0-.03,0c-.3-.04-.6-.08-.9-.11-.12-.02-.21-.13-.2-.26.02-.12.13-.21.26-.2.3.04.6.08.9.11.12.02.21.13.2.25-.01.12-.11.2-.23.2Zm34.52-.14c-.11,0-.21-.08-.23-.2-.02-.12.07-.24.2-.25.3-.04.6-.08.9-.12.12-.02.24.07.26.19.02.12-.07.24-.19.26-.3.04-.6.08-.91.12,0,0-.02,0-.03,0Zm-37.22-.22s-.02,0-.03,0c-.3-.04-.6-.09-.9-.13-.12-.02-.21-.13-.19-.26.02-.12.14-.21.26-.19.3.05.6.09.9.13.12.02.21.13.19.26-.02.11-.11.19-.22.19Zm39.93-.17c-.11,0-.21-.08-.22-.19-.02-.12.06-.24.19-.26.28-.05.58-.1.9-.16.13-.02.24.06.26.18.02.12-.06.24-.18.26-.32.06-.62.11-.9.16-.01,0-.03,0-.04,0Zm-42.62-.25s-.02,0-.04,0c-.3-.05-.6-.1-.9-.15-.12-.02-.21-.14-.19-.26.02-.12.14-.21.26-.19.3.05.6.1.9.15.12.02.21.14.19.26-.02.11-.11.19-.22.19Zm-44.01-.16c-.1,0-.19-.06-.22-.16-.03-.12.03-.25.16-.28.27-.08.56-.16.89-.24.12-.03.25.04.28.17.03.12-.04.25-.17.28-.32.08-.6.16-.87.23-.02,0-.04,0-.06,0Zm89.32-.09c-.11,0-.2-.08-.22-.18-.02-.12.06-.24.18-.27.29-.06.59-.12.89-.18.12-.03.24.05.27.18s-.05.24-.18.27c-.3.06-.6.12-.9.18-.01,0-.03,0-.04,0Zm-48-.21s-.03,0-.04,0l-.9-.16c-.12-.02-.21-.14-.18-.26.02-.12.14-.21.26-.19l.9.16c.12.02.21.14.19.26-.02.11-.12.19-.22.19Zm50.68-.35c-.1,0-.2-.07-.22-.18-.03-.12.05-.24.17-.27.29-.06.59-.13.89-.2.12-.03.24.05.27.17.03.12-.05.24-.17.27-.3.07-.6.13-.89.2-.02,0-.03,0-.05,0Zm-89.35,0c-.1,0-.2-.07-.22-.18-.03-.12.05-.24.17-.27.25-.05.51-.11.78-.17l.11-.02c.12-.03.24.05.27.17.03.12-.05.24-.17.27l-.11.02c-.27.06-.53.12-.78.17-.02,0-.03,0-.05,0Zm35.98-.12s-.03,0-.04,0l-.9-.16c-.12-.02-.21-.14-.18-.26s.14-.21.26-.18l.9.16c.12.02.21.14.18.26-.02.11-.12.19-.22.19Zm-2.69-.47s-.03,0-.04,0l-.9-.16c-.12-.02-.21-.14-.19-.26.02-.12.14-.21.26-.19l.9.16c.12.02.21.14.19.26-.02.11-.12.19-.22.19Zm-30.63,0c-.1,0-.2-.07-.22-.18-.03-.12.05-.24.17-.27l.89-.2c.12-.03.24.05.27.17s-.05.24-.17.27l-.89.2s-.03,0-.05,0Zm89.35-.02c-.1,0-.2-.07-.22-.17-.03-.12.04-.25.17-.28.29-.07.59-.15.88-.22.12-.03.25.04.28.16.03.12-.04.25-.16.28-.29.07-.59.15-.89.22-.02,0-.04,0-.05,0Zm-61.41-.44s-.02,0-.04,0c-.3-.05-.6-.1-.9-.15-.12-.02-.21-.14-.19-.26.02-.12.14-.21.26-.19.3.05.6.1.9.15.12.02.21.14.19.26-.02.11-.11.19-.22.19Zm-25.27-.14c-.1,0-.2-.07-.22-.18-.03-.12.05-.24.17-.27.3-.07.59-.13.89-.19.12-.03.24.05.27.17.03.12-.05.24-.17.27-.3.06-.59.13-.89.19-.02,0-.03,0-.05,0Zm89.33-.11c-.1,0-.19-.07-.22-.17-.03-.12.04-.25.16-.28.29-.08.59-.16.87-.25.12-.03.25.03.28.15.04.12-.03.25-.15.28-.29.08-.58.17-.88.25-.02,0-.04,0-.06,0Zm-66.75-.18s-.02,0-.03,0c-.3-.05-.6-.09-.9-.13-.12-.02-.21-.13-.19-.26.02-.12.13-.21.26-.19.3.04.6.09.9.13.12.02.21.13.19.26-.02.11-.11.19-.22.19Zm-19.9-.28c-.11,0-.2-.08-.22-.18-.02-.12.06-.24.18-.27.3-.06.6-.11.9-.17.12-.02.24.06.26.18.02.12-.06.24-.18.26-.3.05-.59.11-.89.17-.01,0-.03,0-.04,0Zm17.2-.1s-.02,0-.03,0c-.3-.04-.6-.08-.9-.11-.12-.02-.21-.13-.2-.25s.13-.21.25-.2c.3.04.6.07.91.11.12.02.21.13.2.25-.01.11-.11.2-.23.2Zm72.07-.23c-.1,0-.18-.06-.22-.16-.04-.12.03-.25.14-.29.29-.1.58-.19.86-.29.12-.04.25.02.29.14s-.02.25-.14.29c-.28.1-.57.2-.87.3-.02,0-.05.01-.07.01Zm-74.78-.08s-.02,0-.02,0c-.3-.03-.6-.06-.9-.09-.13-.01-.22-.12-.21-.25.01-.12.12-.22.25-.21.3.03.61.06.91.09.13.01.22.12.2.25-.01.12-.11.2-.23.2Zm-11.8-.04c-.11,0-.21-.08-.22-.2-.02-.12.07-.24.19-.26.3-.04.6-.08.91-.12.12-.01.24.07.25.2.02.12-.07.24-.2.25-.3.04-.6.08-.9.12-.01,0-.02,0-.03,0Zm9.08-.2s-.01,0-.02,0c-.3-.02-.6-.04-.91-.06-.13,0-.22-.11-.21-.24,0-.13.12-.22.24-.21.3.02.61.04.91.06.13,0,.22.12.21.24,0,.12-.11.21-.23.21Zm-6.36-.09c-.12,0-.22-.09-.23-.21,0-.13.09-.23.21-.24.31-.02.61-.04.92-.05.13,0,.23.09.24.22,0,.13-.09.23-.22.24-.3.01-.6.03-.9.05,0,0-.01,0-.02,0Zm3.64-.04s0,0,0,0c-.3,0-.6-.02-.91-.02-.13,0-.23-.1-.22-.23,0-.13.11-.23.23-.22.3,0,.61.01.91.02.13,0,.22.11.22.23,0,.12-.1.22-.23.22Zm82.78-.51c-.09,0-.17-.05-.21-.14-.05-.11,0-.25.12-.3.29-.13.57-.26.81-.38.11-.06.25-.01.31.1.06.11.01.25-.1.31-.25.13-.53.26-.84.4-.03.01-.06.02-.09.02Zm2.52-1.05c-.09,0-.18-.06-.21-.15-.04-.12.02-.25.14-.29.29-.1.57-.21.85-.31.12-.04.25.02.29.14.04.12-.02.25-.14.29-.28.1-.57.21-.86.31-.03,0-.05.01-.08.01Zm2.56-.95c-.09,0-.18-.06-.21-.15-.05-.12.01-.25.13-.29.29-.11.57-.22.85-.33.12-.05.25.01.3.13.05.12-.01.25-.13.3-.28.11-.56.22-.85.33-.03.01-.05.02-.08.02Zm2.53-1.02c-.09,0-.17-.05-.21-.14-.05-.12,0-.25.12-.3.28-.12.56-.24.83-.36.12-.05.25,0,.3.12s0,.25-.12.3c-.27.12-.55.24-.84.36-.03.01-.06.02-.09.02Zm2.49-1.11c-.09,0-.17-.05-.21-.13-.05-.11,0-.25.11-.3.28-.13.55-.26.81-.4.11-.06.25,0,.3.1.06.11,0,.25-.1.3-.27.13-.54.27-.82.4-.03.01-.06.02-.1.02Zm2.43-1.24c-.08,0-.16-.04-.2-.12-.06-.11-.02-.25.09-.31.27-.15.53-.3.79-.45.11-.06.25-.03.31.08.06.11.03.25-.08.31-.26.15-.53.3-.8.45-.03.02-.07.03-.11.03Zm2.34-1.41c-.07,0-.15-.04-.19-.1-.07-.1-.04-.25.06-.32.25-.17.5-.34.74-.51.1-.07.24-.05.32.05.07.1.05.24-.05.32-.25.17-.5.35-.76.52-.04.03-.08.04-.13.04Zm2.19-1.62c-.07,0-.13-.03-.18-.08-.08-.1-.07-.24.03-.32.23-.19.46-.39.68-.59.09-.08.24-.08.32.02.08.09.08.24-.02.32-.22.2-.46.4-.7.6-.04.04-.09.05-.14.05Zm1.98-1.87c-.06,0-.11-.02-.15-.06-.09-.08-.1-.23-.01-.32.2-.22.4-.45.59-.68.08-.1.22-.11.32-.03.1.08.11.22.03.32-.19.23-.4.47-.61.69-.04.05-.11.07-.17.07Zm1.69-2.14s-.09-.01-.13-.04c-.1-.07-.13-.21-.06-.32.07-.1.13-.2.19-.3.11-.16.22-.31.32-.46.07-.1.21-.13.32-.05.1.07.13.21.05.32-.1.14-.21.29-.31.45-.06.1-.13.2-.2.3-.04.07-.12.1-.19.1Zm1.6-2.21s-.1-.02-.14-.05c-.1-.08-.12-.22-.04-.32.2-.25.39-.48.57-.71.08-.1.22-.11.32-.03.1.08.11.22.03.32-.18.22-.37.46-.57.7-.04.06-.11.09-.18.09Zm1.73-2.11s-.1-.02-.14-.05c-.1-.08-.11-.22-.03-.32.21-.27.39-.49.55-.71.07-.1.22-.12.32-.05.1.07.12.22.05.32-.16.22-.35.46-.56.73-.04.06-.11.08-.18.08Zm1.54-2.24s-.07,0-.11-.03c-.11-.06-.15-.2-.09-.31.14-.26.27-.53.39-.8.05-.11.19-.17.3-.12.11.05.17.19.12.3-.13.28-.26.56-.41.83-.04.08-.12.12-.2.12Zm1.03-2.52s-.04,0-.07,0c-.12-.04-.19-.16-.15-.28.08-.28.17-.57.24-.87.03-.12.15-.2.28-.16.12.03.2.15.16.28-.08.3-.16.6-.25.88-.03.1-.12.16-.22.16Zm.63-2.65s-.03,0-.04,0c-.12-.02-.2-.14-.18-.27.05-.28.11-.58.16-.89.02-.12.14-.21.26-.19.12.02.21.14.19.26-.05.31-.1.61-.16.9-.02.11-.12.19-.22.19Z"/>
    <path class="cls-1" d="m4.72,32.31c-.06.02-.13.04-.19.07.04.07.08.13.12.2-.3-.13-.93.07-1.26.09-.4.03-.8.05-1.2.06-.49.02-1.65.24-2.03-.19-.43-.48.13-1.38.3-1.86.16-.45.32-.9.48-1.36.09-.25.18-.49.26-.74.03-.08.06-.16.09-.25.03-.3.11-.33.25-.07.14-.02.28-.04.42-.05-.03.02-.06.04-.09.06.06-.13.11-.26.17-.4-.06-.05-.11-.1-.17-.15.3.05.43.45.17.64-.2.15-.34.16-.57.07-.14-.05-.25-.19-.26-.34,0-.04,0-.07-.01-.11-.01-.14.04-.32.17-.4.47-.29.99,0,.89.58-.09.49-.37,1-.54,1.48-.2.53-.39,1.07-.59,1.6-.09.24-.23.49-.27.74-.02.16-.06.16-.11.01.16.01.32.03.48.04.48.03.96.06,1.44.07.54.02,1.08.02,1.61,0,.24,0,.44-.04.59.17.05.07.05.16,0,.23-.07.09-.13.11-.24.1-.08,0-.12-.07-.14-.14,0-.01,0-.02,0-.03-.03-.12.15-.23.24-.14h0Z"/>
  </g>
</svg>