<?xml version="1.0" encoding="UTF-8"?>
<svg id="Layer_2" data-name="Layer 2" xmlns="http://www.w3.org/2000/svg" viewBox="0 0 100.79 30.23">
  <defs>
    <style>
      .cls-1 {
        fill: #0f1638;
      }
    </style>
  </defs>
  <g id="Layer_1-2" data-name="Layer 1">
    <path class="cls-1" d="m98.32,28.52c-.07,0-.13-.03-.17-.08-.04-.05-.08-.1-.12-.15-.08-.1-.06-.24.04-.32.1-.08.24-.06.32.04.04.05.08.1.12.14.08.1.07.24-.03.32-.04.04-.1.05-.15.05Zm-1.17-1.65c-.07,0-.15-.04-.19-.1-.14-.21-.28-.43-.43-.66l-.07-.11c-.07-.11-.04-.25.07-.32.11-.07.25-.04.32.07l.07.11c.15.23.29.45.43.66.07.11.04.25-.07.32-.04.03-.08.04-.12.04Zm-1.51-2.3c-.07,0-.15-.04-.19-.1-.17-.25-.34-.5-.51-.75-.07-.1-.05-.25.06-.32.1-.07.25-.05.32.06.18.26.35.51.52.76.07.1.04.25-.06.32-.04.03-.08.04-.13.04Zm-1.59-2.24c-.07,0-.14-.03-.18-.09-.18-.24-.37-.48-.56-.72-.08-.1-.06-.24.04-.32.1-.08.24-.06.32.04.19.24.38.49.57.73.08.1.06.24-.04.32-.04.03-.09.05-.14.05Zm-65.38-1.48c-.13,0-.23-.1-.23-.23,0-.13.1-.23.23-.23.3,0,.61,0,.91,0,.13,0,.23.1.23.22s-.1.23-.22.23c-.31,0-.61,0-.92,0h0Zm-1.83-.02s0,0,0,0c-.31,0-.61-.02-.92-.03-.13,0-.22-.11-.22-.24,0-.13.11-.22.24-.22.3.01.61.02.91.03.13,0,.23.11.22.23,0,.12-.1.22-.23.22Zm4.57-.05c-.12,0-.22-.1-.23-.22,0-.13.09-.23.22-.24.3-.01.61-.03.91-.05.13,0,.23.09.24.21,0,.13-.09.23-.21.24-.31.02-.61.04-.92.05,0,0,0,0-.01,0Zm-7.31-.08s-.01,0-.02,0c-.31-.02-.61-.04-.92-.07-.13-.01-.22-.12-.21-.25.01-.13.12-.22.25-.21.3.02.61.05.91.07.13,0,.22.12.21.24,0,.12-.11.21-.23.21Zm10.05-.11c-.12,0-.22-.09-.23-.21-.01-.13.08-.24.21-.25.3-.03.6-.06.91-.09.13-.01.24.08.25.2.01.13-.08.24-.2.25-.3.03-.61.06-.91.09,0,0-.01,0-.02,0Zm-12.78-.13s-.02,0-.03,0c-.3-.03-.61-.07-.91-.11-.13-.02-.21-.13-.2-.25.02-.13.13-.21.25-.2.3.04.6.07.91.1.13.01.22.13.2.25-.01.12-.11.2-.23.2Zm15.51-.19c-.11,0-.21-.08-.23-.2-.02-.13.07-.24.19-.26.3-.04.6-.09.9-.13.12-.02.24.07.26.19.02.12-.07.24-.19.26-.3.05-.61.09-.91.14-.01,0-.02,0-.03,0Zm55.43-.06c-.06,0-.12-.03-.17-.08-.21-.23-.42-.45-.62-.66-.09-.09-.09-.24,0-.32.09-.09.24-.09.32,0,.21.22.42.44.63.67.08.09.08.24-.02.32-.04.04-.1.06-.15.06Zm-73.66-.1s-.02,0-.03,0c-.3-.04-.6-.09-.91-.14-.12-.02-.21-.14-.19-.26.02-.12.14-.21.26-.19.3.05.6.09.9.14.12.02.21.13.19.26-.02.11-.11.2-.23.2Zm20.94-.29c-.11,0-.2-.08-.22-.19-.02-.12.06-.24.18-.27h.04c.27-.06.55-.12.84-.2.12-.03.25.04.28.16.03.12-.04.25-.16.28-.3.08-.59.15-.87.2h-.04s-.03.01-.04.01Zm-23.65-.16s-.03,0-.04,0c-.3-.06-.6-.11-.9-.17-.12-.02-.2-.14-.18-.27s.14-.2.27-.18c.3.06.6.12.9.17.12.02.21.14.18.27-.02.11-.12.19-.22.19Zm-2.69-.54s-.03,0-.05,0c-.3-.07-.6-.13-.9-.2-.12-.03-.2-.15-.17-.28.03-.12.15-.2.28-.17.29.07.59.14.89.2.12.03.2.15.17.27-.02.11-.12.18-.22.18Zm28.97-.08c-.09,0-.18-.06-.21-.15-.05-.12.01-.25.13-.3.28-.11.56-.22.84-.34.12-.05.25,0,.3.12.05.12,0,.25-.12.3-.28.12-.57.24-.86.34-.03.01-.05.02-.08.02Zm-31.62-.61s-.04,0-.07-.01c-.3-.09-.6-.19-.88-.29-.12-.04-.18-.17-.14-.29.04-.12.17-.18.29-.14.28.1.57.19.86.28.12.04.19.16.15.29-.03.1-.12.16-.22.16Zm79.75-.15c-.05,0-.11-.02-.15-.05-.23-.2-.47-.39-.7-.57-.1-.08-.12-.22-.04-.32.08-.1.22-.12.32-.04.24.18.48.38.72.58.1.08.11.23.03.32-.05.05-.11.08-.17.08Zm-45.61-.32c-.09,0-.17-.05-.21-.13-.05-.12,0-.25.11-.3l.18-.08c.22-.1.44-.2.65-.29.12-.05.25,0,.3.12.05.12,0,.25-.12.3-.22.1-.43.2-.65.29l-.18.08s-.06.02-.09.02Zm-36.7-.51s-.07,0-.1-.02c-.28-.13-.56-.28-.82-.43-.11-.06-.15-.2-.09-.31.06-.11.2-.15.31-.09.26.14.53.28.8.41.11.05.16.19.11.31-.04.08-.12.13-.21.13Zm39.22-.59c-.09,0-.18-.05-.21-.14-.05-.12,0-.25.13-.3l.85-.34c.12-.05.25,0,.3.13.05.12,0,.25-.13.3l-.85.34s-.06.02-.09.02Zm40.86-.18s-.08,0-.11-.03c-.26-.15-.53-.29-.79-.42-.11-.06-.16-.19-.11-.31.06-.11.19-.16.31-.11.27.13.55.28.82.44.11.06.15.2.08.31-.04.07-.12.11-.2.11Zm-82.43-.65s-.1-.01-.14-.05c-.25-.18-.49-.38-.73-.58-.1-.08-.11-.23-.03-.32.08-.1.23-.11.32-.03.23.19.46.38.7.56.1.08.12.22.05.32-.04.06-.11.09-.18.09Zm44.12-.19c-.09,0-.18-.06-.21-.15-.05-.12.01-.25.13-.3.28-.11.57-.22.85-.33.12-.04.25.01.3.13.05.12-.01.25-.13.3-.28.11-.57.22-.85.33-.03.01-.06.02-.08.02Zm35.81-.25s-.04,0-.06,0c-.21-.06-.42-.11-.63-.16-.01,0-.03,0-.04-.01-.08-.03-.15-.07-.23-.1-.12-.05-.17-.18-.12-.3.05-.12.18-.17.3-.12.07.03.14.06.22.09.21.05.42.1.63.16.12.04.19.16.16.28-.03.1-.12.16-.22.16Zm-33.24-.72c-.09,0-.18-.06-.22-.15-.04-.12.02-.25.14-.29.29-.1.58-.2.87-.3.12-.04.25.02.29.14.04.12-.02.25-.14.29-.29.1-.57.2-.86.3-.03,0-.05.01-.08.01Zm30.65-.18s-.05,0-.07-.01c-.28-.09-.57-.18-.87-.26-.12-.03-.19-.16-.16-.28.03-.12.16-.19.28-.16.3.08.6.17.89.26.12.04.19.17.15.29-.03.1-.12.16-.22.16ZM3.67,14.2c-.06,0-.12-.03-.17-.07-.2-.22-.41-.46-.61-.7-.08-.1-.07-.24.03-.32.1-.08.24-.07.32.03.19.23.39.46.59.68.09.09.08.24-.01.32-.04.04-.1.06-.15.06Zm76.71-.18s-.03,0-.05,0c-.3-.06-.59-.12-.89-.17-.12-.02-.21-.14-.19-.26s.14-.21.26-.19c.3.05.6.11.91.17.12.03.2.15.18.27-.02.11-.12.18-.22.18Zm-25.39,0c-.1,0-.19-.06-.22-.16-.04-.12.03-.25.15-.29.3-.09.59-.17.89-.25.12-.03.25.04.28.16.03.12-.04.25-.16.28-.29.08-.58.16-.87.25-.02,0-.04,0-.07,0Zm22.68-.44s-.02,0-.03,0c-.3-.04-.6-.08-.9-.11-.13-.01-.22-.13-.2-.25s.13-.21.25-.2c.3.03.61.07.91.11.13.02.21.13.2.26-.02.12-.11.2-.23.2Zm-20.03-.25c-.11,0-.2-.07-.22-.18-.03-.12.05-.25.18-.27.3-.06.6-.12.9-.18.12-.02.24.06.27.18.02.12-.06.24-.18.27-.3.05-.59.11-.89.18-.02,0-.03,0-.05,0Zm17.3-.05s-.01,0-.02,0c-.3-.03-.61-.06-.91-.09-.13-.01-.22-.12-.21-.25.01-.13.12-.22.25-.21.3.03.61.06.91.09.13.01.22.12.21.25-.01.12-.11.21-.23.21Zm-2.73-.26s-.02,0-.02,0c-.3-.03-.61-.06-.91-.09-.13-.01-.22-.13-.2-.25.01-.13.13-.22.25-.2.3.03.6.06.91.09.13.01.22.12.21.25-.01.12-.11.21-.23.21Zm-11.86-.15c-.11,0-.21-.08-.23-.2-.02-.13.07-.24.2-.26.3-.04.61-.08.91-.11.13-.01.24.08.25.2.01.13-.08.24-.2.25-.3.03-.6.07-.9.11,0,0-.02,0-.03,0Zm9.13-.12s-.01,0-.02,0c-.3-.03-.61-.05-.91-.07-.13,0-.22-.12-.21-.24s.12-.22.24-.21c.31.02.61.04.92.07.13.01.22.12.21.25-.01.12-.11.21-.23.21Zm-6.4-.13c-.12,0-.22-.09-.23-.22,0-.13.09-.23.22-.24.31-.02.61-.03.92-.04.13,0,.23.1.24.22,0,.13-.1.23-.22.24-.3,0-.61.02-.91.04,0,0,0,0-.01,0Zm3.66-.04s0,0,0,0c-.3,0-.61-.02-.91-.02-.13,0-.23-.11-.23-.23,0-.13.1-.23.23-.23h0c.31,0,.61.01.92.02.13,0,.23.11.22.24,0,.12-.11.22-.23.22ZM1.97,12.05c-.08,0-.15-.04-.19-.11-.17-.26-.32-.53-.46-.82-.06-.11-.01-.25.1-.31.11-.06.25-.01.31.1.13.27.28.53.44.77.07.11.04.25-.07.32-.04.02-.08.04-.12.04Zm-1.12-2.5c-.1,0-.19-.06-.22-.16-.09-.29-.16-.59-.23-.9-.03-.12.05-.25.17-.27.12-.03.25.05.27.17.07.3.14.59.22.87.04.12-.03.25-.15.28-.02,0-.04,0-.06,0Zm-.51-2.69c-.12,0-.22-.09-.23-.21-.03-.3-.05-.61-.07-.92,0-.13.09-.23.22-.24.13,0,.23.09.24.22.02.31.04.61.07.9.01.13-.08.24-.2.25,0,0-.02,0-.02,0Zm-.12-2.74h0C.1,4.12,0,4.01,0,3.89c0-.31,0-.62.01-.92,0-.13.11-.22.23-.22.13,0,.23.11.22.23,0,.3-.01.6-.01.91,0,.13-.1.23-.23.23Zm.06-2.74h0c-.13,0-.23-.11-.22-.23,0-.18,0-.35,0-.52,0-.13,0-.26,0-.38C.06.11.16,0,.28,0c.12-.01.23.1.23.22,0,.13,0,.26,0,.39,0,.17,0,.35,0,.53,0,.12-.1.22-.23.22Z"/>
    <path class="cls-1" d="m95.3,27.38c.04.05.08.11.12.16-.07.03-.14.06-.21.1.32.07.72.6.98.81.31.25.62.5.94.75.39.3,1.21,1.15,1.76,1.02.63-.14.69-1.2.83-1.69.13-.46.26-.92.39-1.39.07-.25.14-.5.21-.76.02-.08.05-.17.07-.25.16-.26.1-.33-.17-.2-.1-.1-.21-.19-.31-.29.01.03.03.07.04.1.03-.14.06-.28.09-.42.08,0,.15-.02.23-.03-.27-.13-.61.12-.51.42.08.24.19.32.43.39.14.04.31-.02.41-.13.02-.03.05-.05.07-.08.09-.11.15-.28.09-.42-.22-.51-.81-.57-1.06-.05-.21.45-.28,1.03-.41,1.52-.15.55-.3,1.09-.45,1.64-.07.24-.1.53-.21.76-.07.14-.05.17.08.07-.14-.08-.28-.16-.41-.25-.41-.25-.81-.51-1.21-.77-.45-.3-.89-.61-1.32-.93-.2-.15-.33-.29-.58-.21-.08.03-.14.1-.13.19,0,.12.04.16.14.23.06.04.14.01.19-.03,0,0,.02-.02.03-.02.09-.08.01-.27-.12-.25h0Z"/>
  </g>
</svg>